HIERARCHY
ROOT Hips
{
	OFFSET 0.000000 0.000000 0.000000
	CHANNELS 6 Xposition Yposition Zposition Zrotation Yrotation Xrotation 
	JOINT LHipJoint
	{
		OFFSET 0.000000 0.000000 0.000000
		CHANNELS 3 Zrotation Yrotation Xrotation
		JOINT LeftUpLeg
		{
			OFFSET 1.363060 -1.794630 0.839290
			CHANNELS 3 Zrotation Yrotation Xrotation
			JOINT LeftLeg
			{
				OFFSET 2.448110 -6.726130 0.000000
				CHANNELS 3 Zrotation Yrotation Xrotation
				JOINT LeftFoot
				{
					OFFSET 2.562200 -7.039590 0.000000
					CHANNELS 3 Zrotation Yrotation Xrotation
					JOINT LeftToeBase
					{
						OFFSET 0.157640 -0.433110 2.322550
						CHANNELS 3 Zrotation Yrotation Xrotation
						End Site
						{
							OFFSET 0.000000 0.000000 0.000000
						}
					}
				}
			}
		}
	}
	JOINT RHipJoint
	{
		OFFSET 0.000000 0.000000 0.000000
		CHANNELS 3 Zrotation Yrotation Xrotation
		JOINT RightUpLeg
		{
			OFFSET -1.305520 -1.794630 0.839290
			CHANNELS 3 Zrotation Yrotation Xrotation
			JOINT RightLeg
			{
				OFFSET -2.542530 -6.985550 0.000000
				CHANNELS 3 Zrotation Yrotation Xrotation
				JOINT RightFoot
				{
					OFFSET -2.568260 -7.056230 0.000000
					CHANNELS 3 Zrotation Yrotation Xrotation
					JOINT RightToeBase
					{
						OFFSET -0.164730 -0.452590 2.363150
						CHANNELS 3 Zrotation Yrotation Xrotation
						End Site
						{
							OFFSET 0.000000 0.000000 0.000000
						}
					}
				}
			}
		}
	}
	JOINT LowerBack
	{
		OFFSET 0.000000 0.000000 0.000000
		CHANNELS 3 Zrotation Yrotation Xrotation
		JOINT Spine
		{
			OFFSET 0.028270 2.035590 -0.193380
			CHANNELS 3 Zrotation Yrotation Xrotation
			JOINT Spine1
			{
				OFFSET 0.056720 2.048850 -0.042750
				CHANNELS 3 Zrotation Yrotation Xrotation
				JOINT Neck
				{
					OFFSET 0.000000 0.000000 0.000000
					CHANNELS 3 Zrotation Yrotation Xrotation
					JOINT Neck1
					{
						OFFSET -0.054170 1.746240 0.172020
						CHANNELS 3 Zrotation Yrotation Xrotation
						JOINT Head
						{
							OFFSET 0.104070 1.761360 -0.123970
							CHANNELS 3 Zrotation Yrotation Xrotation
							End Site
							{
								OFFSET 0.000000 0.000000 0.000000
							}
						}
					}
				}
				JOINT LeftShoulder
				{
					OFFSET 0.000000 0.000000 0.000000
					CHANNELS 3 Zrotation Yrotation Xrotation
					JOINT LeftArm
					{
						OFFSET 3.362410 1.200890 -0.311210
						CHANNELS 3 Zrotation Yrotation Xrotation
						JOINT LeftForeArm
						{
							OFFSET 4.983000 -0.000000 -0.000000
							CHANNELS 3 Zrotation Yrotation Xrotation
							JOINT LeftHand
							{
								OFFSET 3.483560 -0.000000 -0.000000
								CHANNELS 3 Zrotation Yrotation Xrotation
								JOINT LeftFingerBase
								{
									OFFSET 0.000000 0.000000 0.000000
									CHANNELS 3 Zrotation Yrotation Xrotation
									JOINT LeftHandIndex1
									{
										OFFSET 0.715260 -0.000000 -0.000000
										CHANNELS 3 Zrotation Yrotation Xrotation
										End Site
										{
											OFFSET 0.000000 0.000000 0.000000
										}
									}
								}
								JOINT LThumb
								{
									OFFSET 0.000000 0.000000 0.000000
									CHANNELS 3 Zrotation Yrotation Xrotation
									End Site
									{
										OFFSET 0.000000 0.000000 0.000000
									}
								}
							}
						}
					}
				}
				JOINT RightShoulder
				{
					OFFSET 0.000000 0.000000 0.000000
					CHANNELS 3 Zrotation Yrotation Xrotation
					JOINT RightArm
					{
						OFFSET -3.136600 1.374050 -0.404650
						CHANNELS 3 Zrotation Yrotation Xrotation
						JOINT RightForeArm
						{
							OFFSET -5.241900 -0.000000 -0.000000
							CHANNELS 3 Zrotation Yrotation Xrotation
							JOINT RightHand
							{
								OFFSET -3.444170 -0.000000 -0.000000
								CHANNELS 3 Zrotation Yrotation Xrotation
								JOINT RightFingerBase
								{
									OFFSET 0.000000 0.000000 0.000000
									CHANNELS 3 Zrotation Yrotation Xrotation
									JOINT RightHandIndex1
									{
										OFFSET -0.622530 -0.000000 -0.000000
										CHANNELS 3 Zrotation Yrotation Xrotation
										End Site
										{
											OFFSET 0.000000 0.000000 0.000000
										}
									}
								}
								JOINT RThumb
								{
									OFFSET 0.000000 0.000000 0.000000
									CHANNELS 3 Zrotation Yrotation Xrotation
									End Site
									{
										OFFSET 0.000000 0.000000 0.000000
									}
								}
							}
						}
					}
				}
			}
		}
	}
}
MOTION
Frames: 9
Frame Time: 0.008333
16.831249 17.093440 0.416848 -121.268416 87.932883 -129.697859 3.078186 -1.595084 -1.162271 -16.148098 7.355137 11.977120 7.830964 16.980794 55.725352 -0.138748 3.053719 4.853822 0.001600 -0.259300 -0.712500 -7.184010 3.039875 -5.257593 31.141987 0.850928 -1.618437 -2.118809 -10.741103 24.679425 -0.391857 -1.828787 -14.716260 -0.606700 -4.985600 13.867600 3.720740 -0.377352 13.089859 1.393079 0.185822 -1.582082 -1.082612 -0.132401 2.776587 -0.029397 2.242509 -20.867047 4.525814 2.751002 8.108100 -0.991700 1.505800 10.932300 6.962739 -1.142799 0.127310 -93.053002 -0.453766 36.675923 11.326291 -20.601293 -2.299190 -0.081665 0.684701 15.864083 14.344226 -24.986487 -6.428900 -7.125000 0.000000 0.000000 -9.139700 3.913500 8.606800 -6.283794 1.713878 1.955139 88.201179 -5.135599 28.308788 -15.558316 29.418458 -3.924383 0.271647 -2.843428 9.616146 -8.050638 -34.914065 4.720000 7.125000 0.000000 0.000000 26.784500 -60.304200 -10.437900 
16.991630 17.124413 0.429115 -104.287086 87.354666 -112.730819 3.067669 -1.351555 -1.035255 -15.080332 7.106404 10.127407 8.383133 17.329384 57.553778 -0.128596 2.700626 4.517023 0.002700 -0.337300 -0.926900 -7.154781 3.296416 -5.464354 32.189699 0.284370 -0.628651 -1.989636 -10.512711 23.989859 -0.402816 -1.585182 -14.870612 -0.659200 -5.192900 14.459400 4.676283 -0.255448 13.108979 1.421616 0.417836 -1.563885 -1.391151 0.044379 2.790765 -0.064035 2.064910 -20.687710 4.638784 2.506208 8.062103 -0.928000 1.405800 10.849900 6.942499 -1.042904 0.142446 -93.122974 -0.131667 35.420593 10.529066 -19.421425 -2.026335 -0.019127 0.671738 18.530982 12.574350 -24.796102 -5.572500 -7.125000 0.000000 0.000000 -10.221700 4.348300 9.573800 -6.289882 1.693188 1.926869 87.995762 -4.169516 29.023371 -15.717166 29.654277 -3.975764 0.264325 -2.834717 9.066276 -8.584047 -34.724629 4.962400 7.125000 0.000000 0.000000 26.100500 -60.250100 -10.115100 
17.150070 17.155692 0.437497 -96.164330 86.840737 -104.706193 2.994915 -1.250041 -0.952630 -14.238717 6.929201 8.471537 8.844022 17.598054 59.043487 -0.140510 2.808072 4.382557 0.000100 -0.060100 -0.165200 -7.180928 3.439491 -5.639294 32.988881 -0.364847 0.475255 -1.848094 -10.244635 23.162863 -0.413297 -1.302736 -14.986854 -0.690500 -5.312100 14.801000 5.417900 -0.140309 13.253324 1.441326 0.647850 -1.544101 -1.680358 0.193699 2.776620 -0.000631 1.932905 -20.633580 4.577052 2.296400 8.093991 -0.981700 1.310700 10.855200 6.935498 -0.985847 0.158299 -93.238024 0.163914 33.798123 9.774179 -18.286028 -1.783945 0.046038 0.658263 21.736823 11.014978 -24.683351 -4.845000 -7.125000 0.000000 0.000000 -11.179700 4.657600 10.439700 -6.271172 1.649977 1.894983 87.817453 -3.300602 29.429689 -16.004701 30.017508 -4.071063 0.262301 -2.817457 8.789554 -8.992833 -34.387853 5.125400 7.125000 0.000000 0.000000 25.412800 -60.050500 -9.705400 
17.308918 17.186051 0.445163 -97.904498 86.751100 -106.612944 2.963349 -1.283521 -0.912089 -14.148368 6.545881 6.952578 9.277933 17.860610 60.480390 -0.174482 3.099960 3.942836 0.021000 0.935200 2.570600 -7.113464 3.519213 -5.785779 32.912237 -1.351052 1.622027 -1.726259 -9.945630 22.274716 -0.423473 -0.980285 -15.064506 -0.686000 -5.295300 14.752800 5.551388 -0.101497 13.445914 1.424608 0.737420 -1.540751 -1.785159 0.236295 2.731842 0.036231 1.837262 -20.684392 4.498390 2.158558 8.207443 -1.042400 1.248400 10.941800 6.918740 -0.949523 0.170338 -93.330814 0.587685 32.051670 9.105938 -17.276291 -1.582997 0.107232 0.646477 24.823833 9.688623 -24.787919 -4.267400 -7.125000 0.000000 0.000000 -12.001500 4.706800 11.230500 -6.254484 1.597069 1.858662 87.619960 -2.474720 29.762775 -16.355204 30.426524 -4.192606 0.261643 -2.803382 8.518632 -9.395310 -34.243826 5.311400 7.125000 0.000000 0.000000 24.895800 -60.017300 -9.472900 
17.466539 17.219170 0.453034 -98.984417 86.685738 -107.807203 2.928543 -1.320877 -0.873541 -14.071857 6.257202 5.316583 9.687871 18.100506 61.821286 -0.186800 3.042946 3.423764 0.021700 0.951800 2.616100 -7.050611 3.602225 -5.921519 32.826047 -2.239413 2.726358 -1.612903 -9.655379 21.417882 -0.428998 -0.684977 -15.060466 -0.716800 -5.410500 15.083100 5.660821 -0.028078 13.574912 1.393628 0.862062 -1.546919 -1.871849 0.295816 2.672072 -0.169688 1.644532 -20.639806 4.715756 1.972676 8.243482 -0.885000 1.179100 10.949400 6.873516 -0.888821 0.176310 -93.387087 1.098699 30.249364 8.565115 -16.438967 -1.428199 0.163287 0.633187 27.755307 8.510752 -24.911324 -3.758200 -7.125000 0.000000 0.000000 -12.728800 4.711900 11.944800 -6.261283 1.569356 1.829049 87.370807 -1.715958 30.282621 -16.738510 30.876708 -4.333222 0.267574 -2.800965 7.996628 -9.828241 -34.429467 5.560200 7.125000 0.000000 0.000000 24.619200 -60.272800 -9.511000 
17.621094 17.252697 0.458758 -94.423448 86.667326 -103.298115 2.861143 -1.308861 -0.823115 -13.881275 6.188649 3.563003 10.045938 18.315777 62.971775 -0.180521 2.825647 3.127795 0.011200 0.683600 1.878500 -7.041037 3.726635 -6.070659 32.899398 -2.823125 3.771617 -1.518709 -9.402138 20.693797 -0.429866 -0.422043 -14.966529 -0.655500 -5.178600 14.418600 5.805812 0.153084 13.618547 1.357146 1.110246 -1.535066 -1.985418 0.434483 2.642827 -0.426380 1.426723 -20.299579 4.971404 1.748811 8.135575 -0.699600 1.087600 10.787000 6.827349 -0.817618 0.192209 -93.516032 1.537027 28.017501 8.072391 -15.666222 -1.293954 0.217484 0.612401 31.102729 7.411424 -24.844143 -3.259700 -7.125000 0.000000 0.000000 -13.399400 4.892200 12.563700 -6.263417 1.536580 1.812606 87.114413 -1.004913 30.765056 -17.192810 31.411574 -4.500929 0.279188 -2.793868 7.497934 -10.197998 -34.538178 5.769300 7.125000 0.000000 0.000000 24.340400 -60.452800 -9.500600 
17.774320 17.285101 0.465402 -89.924725 86.763568 -98.889916 2.786382 -1.309458 -0.782361 -13.791470 6.128715 1.916535 10.334546 18.494703 63.890778 -0.179231 2.808311 3.224151 0.046300 1.388900 3.819600 -7.031762 3.856226 -6.226709 32.826013 -3.390149 4.891073 -1.426807 -9.133727 19.941268 -0.438649 -0.147273 -15.016761 -0.560500 -4.795300 13.325700 5.770164 0.343537 13.704457 1.321172 1.356281 -1.498271 -2.066023 0.570153 2.661375 -0.411972 1.313156 -19.965007 4.954262 1.562080 8.006272 -0.731400 0.999000 10.617600 6.807730 -0.769941 0.220148 -93.601952 1.814699 25.636391 7.547295 -14.846223 -1.158637 0.269333 0.590827 34.642029 6.499419 -24.856646 -2.857100 -7.125000 0.000000 0.000000 -13.955400 4.968200 13.097400 -6.239749 1.467049 1.794941 86.874140 -0.171741 31.110539 -17.605806 31.888218 -4.656293 0.285398 -2.781596 7.316179 -10.425510 -34.577613 5.897700 7.125000 0.000000 0.000000 24.148000 -60.548000 -9.475300 
17.932657 17.317197 0.473273 -87.207726 86.797928 -96.338879 2.723546 -1.324228 -0.738270 -13.670578 5.993493 0.528724 10.494647 18.592471 64.407727 -0.129028 1.810268 2.395161 0.028200 1.083100 2.977500 -7.001175 3.980185 -6.384946 32.753091 -4.111055 6.144502 -1.314979 -8.814568 19.027091 -0.449675 0.113191 -15.118637 -0.487700 -4.477800 12.424900 5.769782 0.483338 13.867021 1.283598 1.553528 -1.463965 -2.196663 0.677961 2.696127 -0.296924 1.244478 -19.954172 4.864991 1.425651 8.050036 -0.815300 0.939200 10.639600 6.792772 -0.723110 0.238013 -93.526835 2.169672 23.432981 7.075897 -14.097850 -1.042818 0.314489 0.578867 38.044743 6.079838 -25.140712 -2.701200 -7.125000 0.000000 0.000000 -14.212300 4.722500 13.422200 -6.217803 1.407238 1.766304 86.681904 0.718381 31.476870 -17.926726 32.258963 -4.778638 0.264389 -2.763268 6.961968 -11.198140 -34.337850 6.252800 7.125000 0.000000 0.000000 23.181400 -60.508900 -9.049500 
18.088132 17.345716 0.480633 -84.252355 86.995525 -93.553218 2.656282 -1.350268 -0.699284 -13.762207 5.860574 -0.845592 10.583146 18.675187 64.706555 -0.104644 1.337399 1.939016 0.047700 1.409100 3.875200 -6.959676 4.106524 -6.530700 32.454994 -4.808971 7.342304 -1.228400 -8.538094 18.261873 -0.462793 0.407648 -15.230402 -0.402500 -4.072900 11.281800 5.585425 0.616729 14.042392 1.221904 1.724547 -1.441646 -2.323731 0.769149 2.731791 -0.218025 1.176467 -20.176926 4.826131 1.326969 8.261771 -0.856400 0.908200 10.824500 6.768462 -0.662178 0.239831 -93.350736 2.728987 21.757673 6.816180 -13.677960 -0.981607 0.342070 0.570076 40.423856 5.946479 -25.250644 -2.653700 -7.125000 0.000000 0.000000 -14.292800 4.622500 13.531100 -6.210937 1.371034 1.729844 86.525907 1.622298 31.826261 -18.212516 32.586173 -4.885073 0.236323 -2.738146 6.546371 -12.139212 -33.811020 6.635200 7.125000 0.000000 0.000000 21.819400 -60.246300 -8.349400 
